Coordinates
version=1
nRows=13
nColumns=36
inDegrees=yes

Units are S.I. units (second, meters, Newtons, ...)
If the header above contains a line with 'inDegrees', this indicates whether rotational values are in degrees (yes) or radians (no).

endheader
time	pelvis_tilt	pelvis_list	pelvis_rotation	pelvis_tx	pelvis_ty	pelvis_tz	hip_flexion_r	hip_adduction_r	hip_rotation_r	knee_angle_r	knee_angle_r_beta	ankle_angle_r	subtalar_angle_r	mtp_angle_r	hip_flexion_l	hip_adduction_l	hip_rotation_l	knee_angle_l	knee_angle_l_beta	ankle_angle_l	subtalar_angle_l	mtp_angle_l	lumbar_extension	lumbar_bending	lumbar_rotation	arm_flex_r	arm_add_r	arm_rot_r	elbow_flex_r	pro_sup_r	arm_flex_l	arm_add_l	arm_rot_l	elbow_flex_l	pro_sup_l
     29.93333330	     -2.40774641	     -7.96663189	     -5.11141186	      1.13006923	      0.92580811	      0.78002011	     19.29874087	      8.97785296	      1.69827424	     21.11045024	      0.36844686	      7.88443548	      4.12283647	     -7.49999987	      4.04587184	    -11.85365393	     -1.28154348	     59.91124987	      1.04564857	     -2.81322522	     -8.51919181	     -7.49999987	    -11.26765532	     13.23805466	      5.69497547	     -5.04775381	    -18.81121098	     -3.70054805	     23.98434645	     61.93693853	      6.53437850	     -5.42670996	      8.44870404	     26.84799976	     56.28465510
     29.95000000	     -1.76004812	     -7.43904966	     -5.38725983	      1.13336222	      0.92905287	      0.78269916	     16.94369915	      8.63969511	      2.47141356	     20.66118659	      0.36060573	      9.16312883	      4.31498518	     -7.49999987	      5.92357004	    -11.26960211	     -1.22628496	     62.68199361	      1.09400717	     -2.47433895	    -10.40138197	     -7.49999987	    -11.78068612	     12.51007590	      6.59804782	     -5.08016840	    -18.57226522	     -4.34829680	     24.70394513	     61.95131420	      5.94799211	     -4.93589890	      9.17517420	     25.68045574	     56.03780485
     29.96666670	     -1.08417955	     -6.75754314	     -5.62300194	      1.13441238	      0.93452292	      0.78553948	     14.42282703	      8.02403778	      3.15457894	     19.89567743	      0.34724508	     10.45746224	      4.76049440	     -7.49999987	      7.90681022	    -10.56905904	     -1.24943100	     64.64857421	      1.12833048	     -1.77687188	    -11.75787860	     -7.49999987	    -12.31036756	     11.53972000	      7.42751402	     -4.94211043	    -18.19083977	     -4.66949760	     25.27387535	     61.95414621	      5.45080620	     -4.57274354	      9.55338898	     24.64581334	     55.80809941
     29.98333330	     -0.48290652	     -5.91907810	     -5.89657251	      1.13316628	      0.94084966	      0.78830481	     11.89978094	      7.16104425	      3.80568799	     18.85995097	      0.32916824	     11.61414946	      5.33485038	     -7.49999987	     10.04113530	     -9.72181842	     -1.33759031	     65.87561352	      1.14974635	     -1.21801013	    -12.44981331	     -7.49999987	    -12.81986979	     10.37130843	      8.14185359	     -4.48920835	    -17.77105826	     -4.58865517	     25.74208579	     62.00456444	      4.84964271	     -4.35706695	      9.65411649	     24.16060455	     55.70041276
     30.00000000	      0.16430320	     -5.02777075	     -6.19988333	      1.13121310	      0.94492944	      0.79036892	      9.41822769	      6.14102357	      4.26312806	     17.79011560	      0.31049609	     12.59627593	      6.17656025	     -7.49999987	     12.00999234	     -8.89398812	     -1.63934277	     66.35269571	      1.15807301	     -0.97111417	    -12.55209825	     -7.49999987	    -13.43875867	      9.14492046	      9.06918154	     -4.14664482	    -17.45057973	     -4.42124583	     26.49426450	     61.92047954	      4.45093940	     -4.12476546	      9.38024271	     23.74311896	     55.62516831
     30.01666670	      0.56030019	     -4.14917326	     -6.40768845	      1.12928360	      0.94515473	      0.79159762	      7.46042954	      5.12282163	      4.54103595	     16.91938794	      0.29529903	     13.40973125	      6.74881834	     -7.49999987	     14.08181288	     -8.24043081	     -2.10981636	     66.20837051	      1.15555406	     -0.72761800	    -12.25100872	     -7.49999987	    -13.75761628	      8.01061675	      9.88039901	     -3.84525731	    -17.19384230	     -4.06452096	     27.36813742	     61.85688037	      4.06564193	     -3.99894038	      8.98649231	     23.32472521	     55.54275354
     30.03333330	      0.64443691	     -3.31189149	     -6.60173441	      1.12673102	      0.94319347	      0.79226106	      6.09312384	      4.19702276	      4.92973573	     16.27969520	      0.28413428	     14.13354916	      6.97297823	     -7.49999987	     16.28758899	     -7.80198725	     -2.83904148	     65.48455804	      1.14292115	     -0.13109322	    -11.68443745	     -7.49999987	    -13.65341865	      6.98081098	     10.54399572	     -3.50027043	    -17.01830873	     -3.66402721	     28.30882252	     61.94892681	      3.62954364	     -4.04474402	      8.87283158	     22.90766795	     55.43653029
     30.05000000	      0.86714751	     -2.67243927	     -6.55267596	      1.12360297	      0.94297680	      0.79220697	      4.57758086	      3.40375377	      4.97637312	     15.55877188	      0.27155180	     14.75261617	      7.59517760	     -7.49999987	     18.15007303	     -7.46141608	     -3.44259913	     63.96979590	      1.11648356	      0.76550410	    -11.40171608	     -7.49999987	    -13.98727186	      6.21403046	     11.08369892	     -3.19185438	    -17.03667530	     -3.31786653	     29.87785492	     61.81490971	      3.34437268	     -4.07948419	      8.32617075	     23.00664701	     55.52212600
     30.06666670	      0.68169904	     -1.94631434	     -6.41911253	      1.12152761	      0.94453227	      0.79269096	      3.42347757	      2.60843026	      5.46876124	     14.79836532	      0.25828020	     15.27504102	      7.50701110	     -7.49999987	     20.11346102	     -7.08834376	     -4.18136629	     61.38120680	      1.07130416	      2.11949302	    -10.53767055	     -7.49999987	    -13.62933949	      5.35452213	     11.58231603	     -2.95039820	    -17.02121913	     -2.71139999	     31.11307728	     61.95125259	      3.34003683	     -4.16339743	      8.29344988	     22.22551394	     55.47285304
     30.08333330	      0.79112281	     -1.43389163	     -5.98510279	      1.12000398	      0.94575623	      0.79387705	      1.79816086	      1.93557747	      5.72653643	     13.83846250	      0.24152673	     15.45927578	      7.46043853	     -7.49999987	     21.42923581	     -6.78771951	     -4.63573839	     57.79266803	      1.00867234	      2.84672856	    -10.20204204	     -7.49999987	    -13.86244343	      4.70172191	     11.94155829	     -2.84406866	    -17.07861001	     -2.28192217	     33.04675921	     61.73733378	      3.13191530	     -4.34624835	      7.81065681	     22.78175007	     55.74058763
     30.10000000	      0.58562116	     -1.06186905	     -5.52210645	      1.11809084	      0.94407706	      0.79578511	      0.64410124	      1.45779097	      6.09933900	     13.10855679	      0.22878748	     15.59964553	      7.19950250	     -7.49999987	     22.77191455	     -6.78132151	     -5.14093490	     53.45625282	      0.93298762	      3.09700320	     -9.60902607	     -7.49999987	    -13.71362344	      4.19291454	     12.14307942	     -2.72960116	    -17.05764680	     -1.83166858	     34.86824591	     61.59988330	      2.84539802	     -4.65398327	      7.64981669	     23.26057330	     56.02933287
     30.11666670	      0.18039340	     -0.89806857	     -4.92875729	      1.11524838	      0.94109376	      0.79680225	     -0.09284484	      1.25442009	      6.39389783	     12.66234730	      0.22099965	     15.95749425	      6.59222650	     -7.49999987	     24.20510846	     -6.99156707	     -5.44522113	     48.69024506	      0.84980509	      3.17102446	     -8.58384509	     -7.49999987	    -13.33907834	      3.95830667	     12.62646767	     -2.94476800	    -17.36531347	     -0.75023854	     36.55754091	     61.71073705	      2.99980422	     -4.94439058	      8.59192067	     22.88309329	     56.41304639
     30.13333330	     -0.20225266	     -0.77476300	     -4.42033696	      1.11252919	      0.93913963	      0.79661549	     -0.72522467	      1.11636125	      6.49903539	     12.34003929	      0.21537432	     16.73925341	      6.35128158	     -7.49999987	     25.49649071	     -7.23369551	     -5.80145479	     43.67342349	      0.76224504	      3.04195311	     -7.25571719	     -7.49999987	    -13.13643545	      3.73755617	     12.80034769	     -2.95051699	    -17.55336295	     -0.21041356	     38.14136013	     61.65854132	      2.74787957	     -5.44413384	      9.33980600	     23.50107580	     56.77055965
